Description

Sinopse e detalhes

Após cair em desgraça em Los Angeles devido a uma operação fracassada, Ray Owens (Arnold Schwarzenegger) parte para o interior e assume a posição de xerife em uma pequena cidade na fronteira dos Estados Unidos com o México. O que ele não esperava era que um poderoso chefão das drogas, que escapou recentemente da prisão, quisesse cruzar a fronteira exatamente na cidade onde trabalha. Para enfrentá-lo Ray precisa reunir todo o pessoal que tem à disposição.

Format : Matroska
Format version : Version 4 / Version 2
File size : 1.72 GiB
Duration : 1h 47mn
Overall bit rate mode : Variable
Overall bit rate : 2 303 Kbps
Encoded date : UTC 2013-06-14 15:14:19
Writing application : mkvmerge v6.2.0 ('Promised Land') built on Apr 28 2013 12:22:01
Writing library : libebml v1.3.0 + libmatroska v1.4.0

Video
ID : 2
Format : AVC
Format/Info : Advanced Video Codec
Format profile : High@L4.0
Format settings, CABAC : Yes
Format settings, ReFrames : 5 frames
Codec ID : V_MPEG4/ISO/AVC
Duration : 1h 47mn
Bit rate : 2 172 Kbps
Width : 1 920 pixels
Height : 804 pixels
Display aspect ratio : 2.40:1
Frame rate mode : Constant
Frame rate : 24.000 fps
Color space : YUV
Chroma subsampling : 4:2:0
Bit depth : 8 bits
Scan type : Progressive
Bits/(Pixel*Frame) : 0.059
Stream size : 1.59 GiB (92%)
Title : por
Writing library : x264 core 130 r2273 b3065e6
Encoding settings : cabac=1 / ref=5 / deblock=1:0:0 / analyse=0x3:0x113 / me=hex / subme=7 / psy=1 / psy_rd=1.00:0.00 / mixed_ref=1 / me_range=16 / chroma_me=1 / trellis=1 / 8x8dct=1 / cqm=0 / deadzone=21,11 / fast_pskip=1 / chroma_qp_offset=-2 / threads=6 / lookahead_threads=1 / sliced_threads=0 / nr=0 / decimate=1 / interlaced=0 / bluray_compat=0 / constrained_intra=0 / bframes=8 / b_pyramid=2 / b_adapt=1 / b_bias=0 / direct=1 / weightb=1 / open_gop=0 / weightp=2 / keyint=240 / keyint_min=24 / scenecut=40 / intra_refresh=0 / rc_lookahead=40 / rc=2pass / mbtree=1 / bitrate=2172 / ratetol=1.0 / qcomp=0.60 / qpmin=10 / qpmax=51 / qpstep=4 / cplxblur=20.0 / qblur=0.5 / ip_ratio=1.40 / aq=1:1.00
Language : Portuguese
Default : Yes
Forced : No

Audio
ID : 1
Format : MPEG Audio
Format version : Version 1
Format profile : Layer 3
Mode : Joint stereo
Mode extension : MS Stereo
Codec ID : A_MPEG/L3
Codec ID/Hint : MP3
Duration : 1h 49mn
Bit rate mode : Variable
Bit rate : 128 Kbps
Channel(s) : 2 channels
Sampling rate : 48.0 KHz
Compression mode : Lossy
Stream size : 99.9 MiB (6%)
Title : O Ultimo Desafio - Zagor Lukas
Writing library : LAME3.92
Encoding settings : -m j -V 4 -q 2 -lowpass 4.1 --abr 128
Language : Portuguese
Default : Yes
Forced : No

Text
ID : 3
Format : ASS
Codec ID : S_TEXT/ASS
Codec ID/Info : Advanced Sub Station Alpha
Compression mode : Lossless
Title : Credito
Language : Portuguese
Default : Yes
Forced : No